<svg xmlns="http://www.w3.org/2000/svg" width="35" height="39" viewBox="0 0 35 39">
  <g id="addPerson" transform="translate(15056 -5769)">
    <g id="User_Image" data-name="User Image" transform="translate(-15056 5769)">
      <circle id="Ellipse_46" data-name="Ellipse 46" cx="17.5" cy="17.5" r="17.5" fill="#038da0"/>
      <path id="Icon_awesome-user-alt" data-name="Icon awesome-user-alt" d="M7.9,9.4a4.578,4.578,0,0,0,4.441-4.7A4.578,4.578,0,0,0,7.9,0,4.578,4.578,0,0,0,3.454,4.7,4.578,4.578,0,0,0,7.9,9.4Zm3.948,1.044h-1.7a5.1,5.1,0,0,1-4.5,0h-1.7A4.068,4.068,0,0,0,0,14.623v.522a1.526,1.526,0,0,0,1.48,1.567H14.311a1.526,1.526,0,0,0,1.48-1.567v-.522A4.068,4.068,0,0,0,11.844,10.445Z" transform="translate(10 6)" fill="#fff"/>
    </g>
    <g id="times-square-Filled" transform="translate(-15041 5787)">
      <rect id="Path" width="20" height="21" rx="10" fill="#fff"/>
      <path id="times-square-Filled_1_" d="M7.658.187,3.982.1A3.741,3.741,0,0,0,.1,3.935L.185,7.567A4.209,4.209,0,0,0,4.263,11.6l3.676.09a3.741,3.741,0,0,0,3.886-3.838l-.089-3.632A4.209,4.209,0,0,0,7.658.187Zm.609,7.148a.585.585,0,0,1-.41,1.025.662.662,0,0,1-.439-.186L5.982,6.753,4.612,8.105a.6.6,0,0,1-.431.165.663.663,0,0,1-.439-.186.606.606,0,0,1-.021-.86L5.091,5.872,3.654,4.451a.605.605,0,0,1-.021-.86.623.623,0,0,1,.87.021L5.94,5.034,7.309,3.681a.623.623,0,0,1,.87.021.606.606,0,0,1,.021.86L6.831,5.914Z" transform="translate(9.952 2.118) rotate(45)" fill="#603881"/>
    </g>
  </g>
</svg>
