<svg xmlns="http://www.w3.org/2000/svg" xmlns:xlink="http://www.w3.org/1999/xlink" width="30" height="25" viewBox="0 0 30 25">
  <defs>
    <clipPath id="clip-path">
      <rect id="Rectangle_6228" data-name="Rectangle 6228" width="30" height="25" transform="translate(0 0.312)" fill="#ce0c3d" stroke="#707070" stroke-width="1"/>
    </clipPath>
  </defs>
  <g id="apple_pay" data-name="apple pay" transform="translate(0 -0.312)" clip-path="url(#clip-path)">
    <path id="Apple_Pay-Logo.wine" d="M5.457,1.6a1.826,1.826,0,0,1-1.47.7A2.12,2.12,0,0,1,4.512.761,2.184,2.184,0,0,1,5.97,0a2.259,2.259,0,0,1-.513,1.6m.508.815c-.811-.047-1.505.466-1.89.466s-.98-.443-1.622-.431A2.393,2.393,0,0,0,.417,3.7c-.875,1.523-.228,3.778.618,5.018.414.614.91,1.287,1.563,1.263.618-.024.863-.407,1.61-.407s.968.407,1.622.4c.677-.012,1.1-.614,1.517-1.228a5.414,5.414,0,0,0,.677-1.411A2.221,2.221,0,0,1,6.705,5.307a2.273,2.273,0,0,1,1.068-1.9,2.3,2.3,0,0,0-1.808-.992M10.649.7v9.2h1.412V6.759h1.954a2.9,2.9,0,0,0,3.039-3.034A2.87,2.87,0,0,0,14.062.7Zm1.412,1.2h1.628a1.706,1.706,0,0,1,1.925,1.824,1.712,1.712,0,0,1-1.931,1.83H12.061Zm7.572,8.069A2.33,2.33,0,0,0,21.715,8.8h.029v1.1h1.307V5.325C23.051,4,22,3.14,20.385,3.14c-1.5,0-2.608.868-2.649,2.06h1.272a1.241,1.241,0,0,1,1.336-.939c.863,0,1.348.407,1.348,1.157v.508l-1.762.106c-1.639.1-2.526.779-2.526,1.96A2.011,2.011,0,0,0,19.633,9.976Zm.379-1.092c-.753,0-1.231-.366-1.231-.927,0-.578.461-.915,1.342-.968l1.569-.1v.519A1.541,1.541,0,0,1,20.012,8.884ZM24.8,12.408c1.377,0,2.024-.531,2.59-2.143l2.479-7.036H28.43L26.768,8.666h-.029L25.076,3.229H23.6l2.392,6.7-.128.407a1.125,1.125,0,0,1-1.19.956c-.111,0-.327-.012-.414-.024v1.1a3.844,3.844,0,0,0,.537.035Z" transform="translate(0 6.186)"/>
  </g>
</svg>
