<svg xmlns="http://www.w3.org/2000/svg" width="14.25" height="14.625" viewBox="0 0 14.25 14.625">
  <path id="calendar-Filled_1_" d="M411.75,2703.455a3.574,3.574,0,0,0-3.375-3.555v-.15a.75.75,0,1,0-1.5,0v.127h-4.5v-.127a.75.75,0,1,0-1.5,0v.15a3.574,3.574,0,0,0-3.375,3.555v1.417a.22.22,0,0,0,.015.068.141.141,0,0,0-.015.06v5.25a3.38,3.38,0,0,0,3.375,3.375h7.5a3.38,3.38,0,0,0,3.375-3.375V2705a.142.142,0,0,0-.015-.06.22.22,0,0,0,.015-.068ZM401.625,2711a.75.75,0,1,1,.75-.75A.752.752,0,0,1,401.625,2711Zm0-3a.75.75,0,1,1,.75-.75A.752.752,0,0,1,401.625,2708Zm3,3a.75.75,0,1,1,.75-.75A.752.752,0,0,1,404.625,2711Zm0-3a.75.75,0,1,1,.75-.75A.752.752,0,0,1,404.625,2708Zm3,3a.75.75,0,1,1,.75-.75A.752.752,0,0,1,407.625,2711Zm0-3a.75.75,0,1,1,.75-.75A.752.752,0,0,1,407.625,2708Zm2.625-3.375H399v-1.17a2.074,2.074,0,0,1,1.9-2.062.739.739,0,0,0,.72.607.747.747,0,0,0,.728-.623H406.9a.747.747,0,0,0,.728.623.739.739,0,0,0,.72-.607,2.079,2.079,0,0,1,1.9,2.062Z" transform="translate(-397.5 -2699)" fill="#603881"/>
</svg>
