<svg xmlns="http://www.w3.org/2000/svg" width="19" height="19.5" viewBox="0 0 19 19.5">
  <path id="calendar-Filled_1_" d="M416.5,2704.94a4.765,4.765,0,0,0-4.5-4.74v-.2a1,1,0,0,0-2,0v.17h-6V2700a1,1,0,0,0-2,0v.2a4.765,4.765,0,0,0-4.5,4.74v1.89a.293.293,0,0,0,.02.09.189.189,0,0,0-.02.08v7a4.507,4.507,0,0,0,4.5,4.5h10a4.507,4.507,0,0,0,4.5-4.5v-7a.189.189,0,0,0-.02-.08.292.292,0,0,0,.02-.09ZM403,2715a1,1,0,1,1,1-1A1,1,0,0,1,403,2715Zm0-4a1,1,0,1,1,1-1A1,1,0,0,1,403,2711Zm4,4a1,1,0,1,1,1-1A1,1,0,0,1,407,2715Zm0-4a1,1,0,1,1,1-1A1,1,0,0,1,407,2711Zm4,4a1,1,0,1,1,1-1A1,1,0,0,1,411,2715Zm0-4a1,1,0,1,1,1-1A1,1,0,0,1,411,2711Zm3.5-4.5h-15v-1.56a2.766,2.766,0,0,1,2.54-2.75.985.985,0,0,0,.96.81,1,1,0,0,0,.97-.83h6.06a1,1,0,0,0,.97.83.985.985,0,0,0,.96-.81,2.773,2.773,0,0,1,2.54,2.75Z" transform="translate(-397.5 -2699)" fill="#038da0"/>
</svg>
