<svg xmlns="http://www.w3.org/2000/svg" xmlns:xlink="http://www.w3.org/1999/xlink" width="56" height="56" viewBox="0 0 56 56">
  <defs>
    <filter id="Ellipse_104" x="0" y="0" width="56" height="56" filterUnits="userSpaceOnUse">
      <feOffset dy="3" input="SourceAlpha"/>
      <feGaussianBlur stdDeviation="3" result="blur"/>
      <feFlood flood-color="#eeedf8"/>
      <feComposite operator="in" in2="blur"/>
      <feComposite in="SourceGraphic"/>
    </filter>
  </defs>
  <g transform="matrix(1, 0, 0, 1, 0, 0)" filter="url(#Ellipse_104)">
    <circle id="Ellipse_104-2" data-name="Ellipse 104" cx="19" cy="19" r="19" transform="translate(9 6)" fill="#038da0"/>
  </g>
  <path id="camera-Filled_1_" d="M457,2854a2,2,0,1,1-2-2A2.006,2.006,0,0,1,457,2854Zm7.5-2v5a4.507,4.507,0,0,1-4.5,4.5H450a4.507,4.507,0,0,1-4.5-4.5v-5a4.5,4.5,0,0,1,4.23-4.49l1.26-1.9a2.514,2.514,0,0,1,2.08-1.11h3.86a2.513,2.513,0,0,1,2.08,1.11l1.26,1.9A4.5,4.5,0,0,1,464.5,2852Zm-5.5,2a4,4,0,1,0-4,4A4,4,0,0,0,459,2854Zm3-3a1,1,0,1,0-1,1A1,1,0,0,0,462,2851Z" transform="translate(-427 -2828)" fill="#fff"/>
</svg>
