<svg xmlns="http://www.w3.org/2000/svg" width="19" height="19" viewBox="0 0 19 19">
  <path id="times-square-Filled_1_" d="M554,2483.5h-6a6.513,6.513,0,0,0-6.5,6.5v6a6.513,6.513,0,0,0,6.5,6.5h6a6.513,6.513,0,0,0,6.5-6.5v-6A6.513,6.513,0,0,0,554,2483.5Zm.71,11.79a1.008,1.008,0,0,1,0,1.42,1.014,1.014,0,0,1-1.42,0l-2.29-2.29-2.29,2.29a1.014,1.014,0,0,1-1.42,0,1.008,1.008,0,0,1,0-1.42l2.29-2.29-2.29-2.29a1,1,0,0,1,1.42-1.42l2.29,2.29,2.29-2.29a1,1,0,1,1,1.42,1.42l-2.29,2.29Z" transform="translate(-541.5 -2483.5)" fill="#f01d1d"/>
</svg>
