<svg xmlns="http://www.w3.org/2000/svg" width="51.896" height="57.582" viewBox="0 0 51.896 57.582">
  <g id="Group_75099" data-name="Group 75099" transform="translate(-289 -193.209)">
    <g id="Group_74712" data-name="Group 74712" transform="translate(118 -2.791)">
      <g id="calendar-Filled" transform="translate(171 196)">
        <rect id="Path" width="50" height="50" fill="rgba(255,255,255,0)"/>
        <path id="calendar-Filled_1_" d="M437.083,2711.375a9.928,9.928,0,0,0-9.375-9.875v-.417a2.083,2.083,0,1,0-4.167,0v.354h-12.5v-.354a2.083,2.083,0,1,0-4.167,0v.417a9.928,9.928,0,0,0-9.375,9.875v3.937a.617.617,0,0,0,.042.188.391.391,0,0,0-.042.167v14.583a9.389,9.389,0,0,0,9.375,9.375h20.833a9.389,9.389,0,0,0,9.375-9.375v-14.583a.392.392,0,0,0-.042-.167.614.614,0,0,0,.042-.188Zm-28.125,20.958a2.083,2.083,0,1,1,2.083-2.083A2.089,2.089,0,0,1,408.958,2732.333Zm0-8.333a2.083,2.083,0,1,1,2.083-2.083A2.089,2.089,0,0,1,408.958,2724Zm8.333,8.333a2.083,2.083,0,1,1,2.083-2.083A2.089,2.089,0,0,1,417.292,2732.333Zm0-8.333a2.083,2.083,0,1,1,2.083-2.083A2.089,2.089,0,0,1,417.292,2724Zm8.333,8.333a2.083,2.083,0,1,1,2.083-2.083A2.089,2.089,0,0,1,425.625,2732.333Zm0-8.333a2.083,2.083,0,1,1,2.083-2.083A2.089,2.089,0,0,1,425.625,2724Zm7.292-9.375h-31.25v-3.25a5.763,5.763,0,0,1,5.292-5.729,2.053,2.053,0,0,0,2,1.688,2.075,2.075,0,0,0,2.021-1.729H423.6a2.075,2.075,0,0,0,2.021,1.729,2.053,2.053,0,0,0,2-1.688,5.778,5.778,0,0,1,5.292,5.729Z" transform="translate(-392.292 -2694.833)" fill="#038da0" opacity="0.6"/>
      </g>
      <g id="Group_74710" data-name="Group 74710" transform="translate(130.509 160)">
        <circle id="Ellipse_117" data-name="Ellipse 117" cx="14.034" cy="14.034" r="14.034" transform="matrix(0.082, -0.997, 0.997, 0.082, 62.099, 91.267)" fill="#f01d1d"/>
        <path id="Path_46363" data-name="Path 46363" d="M80.929,72.59l-3.687,3.687L73.556,72.59A1.528,1.528,0,0,0,71.4,74.751l3.687,3.687L71.4,82.124a1.528,1.528,0,0,0,2.161,2.161L77.243,80.6l3.687,3.687a1.528,1.528,0,0,0,2.161-2.161L79.4,78.438l3.687-3.687a1.528,1.528,0,0,0-2.161-2.161Z" fill="#fff"/>
      </g>
    </g>
  </g>
</svg>

