<svg xmlns="http://www.w3.org/2000/svg" xmlns:xlink="http://www.w3.org/1999/xlink" width="31" height="25" viewBox="0 0 31 25">
  <defs>
    <clipPath id="clip-path">
      <rect id="Rectangle_6277" data-name="Rectangle 6277" width="31" height="25" transform="translate(262 388)" fill="#ce0c3d" stroke="#707070" stroke-width="1"/>
    </clipPath>
  </defs>
  <g id="cards" transform="translate(-262 -388)" clip-path="url(#clip-path)">
    <path id="credit-card-payment-icon" d="M1.989,11.4H5.008v.806H1.989ZM15.378,8.847a1.687,1.687,0,0,1,1.4.786,1.655,1.655,0,0,1,1.953-.682,2.009,2.009,0,0,1,0,3.676,1.655,1.655,0,0,1-1.953-.682,1.644,1.644,0,0,1-2.124.595,2,2,0,0,1-.979-2.17,1.8,1.8,0,0,1,1.705-1.523ZM20.613,14.6a.551.551,0,0,0,.511-.552V6.684H.686v7.368a.548.548,0,0,0,.146.393.487.487,0,0,0,.355.167ZM1.19,15.373a1.111,1.111,0,0,1-.845-.393,1.365,1.365,0,0,1-.355-.934V1.325A1.4,1.4,0,0,1,.341.385,1.137,1.137,0,0,1,1.19,0H20.613a1.269,1.269,0,0,1,1.2,1.325V14.052a1.386,1.386,0,0,1-.355.934,1.154,1.154,0,0,1-.847.393H1.188ZM.686,2.862H21.124V1.323A.569.569,0,0,0,20.969.93a.478.478,0,0,0-.355-.171H1.19A.476.476,0,0,0,.835.93a.574.574,0,0,0-.146.393V2.862ZM6.4,11.4h5.023v.806H6.4Z" transform="translate(266.961 392.932)" fill="#038da0" fill-rule="evenodd"/>
  </g>
</svg>
