<svg xmlns="http://www.w3.org/2000/svg" width="19.5" height="19.498" viewBox="0 0 19.5 19.498">
  <path id="chart-pie-Filled_1_" d="M800.95,2850.931a10.047,10.047,0,0,0-7.881-7.881,2.508,2.508,0,0,0-3,2.457v5.424a3,3,0,0,0,3,3h5.424a2.508,2.508,0,0,0,2.457-3Zm-2.065.813a.5.5,0,0,1-.392.187h-5.424a1,1,0,0,1-1-1v-5.424a.509.509,0,0,1,.5-.507.479.479,0,0,1,.1.011,8.048,8.048,0,0,1,6.314,6.314A.5.5,0,0,1,798.885,2851.744Zm-.148,4.194a1.022,1.022,0,0,1,.1.953,8.925,8.925,0,0,1-8.326,5.608,9.44,9.44,0,0,1-.96-.05,9.113,9.113,0,0,1-8-8,8.942,8.942,0,0,1,5.56-9.286,1.024,1.024,0,0,1,.953.1,1,1,0,0,1,.438.825V2853a2.5,2.5,0,0,0,2.5,2.5h6.912A1,1,0,0,1,798.737,2855.938Z" transform="translate(-781.5 -2843.001)" fill="#3a3b55"/>
</svg>

