<svg xmlns="http://www.w3.org/2000/svg" xmlns:xlink="http://www.w3.org/1999/xlink" width="130.07" height="102.865" viewBox="0 0 130.07 102.865">
  <defs>
    <clipPath id="clip-path">
      <rect id="Rectangle_6230" data-name="Rectangle 6230" width="85" height="79" transform="translate(107 290)" fill="#fff" stroke="#707070" stroke-width="1"/>
    </clipPath>
  </defs>
  <g id="Group_74681" data-name="Group 74681" transform="translate(-125.545 -284.135)">
    <path id="Path_46337" data-name="Path 46337" d="M132.512,92.851c-8.339-.323-16.287-3.327-23.865-6.613S93.558,79.311,85.415,77.57c-5.236-1.121-11.224-1.279-15.441,1.853-4.06,3.013-5.371,8.215-6.076,13.042-.531,3.632-.838,7.453.612,10.854,1.01,2.36,2.8,4.344,4.041,6.6,4.311,7.866,1.263,17.567-3.409,25.255-2.192,3.608-4.734,7.041-6.425,10.877s-2.474,8.231-.994,12.144c1.467,3.875,4.961,6.791,8.748,8.839,7.691,4.157,16.753,5.346,25.589,6.028,19.561,1.493,39.227.846,58.84.2a154.841,154.841,0,0,0,21.689-1.737c3.965-.7,8.06-1.8,10.939-4.464a11.041,11.041,0,0,0,2.111-13.353c-4.108-7.114-15.464-8.882-18.336-16.517-1.58-4.2.043-8.885,2.34-12.782,4.926-8.361,13.184-15.7,13.619-25.255a17.812,17.812,0,0,0-9.809-16.245c-6.433-3.259-15.355-2.848-20.1,2.539C148.463,91,139.874,93.136,132.512,92.851Z" transform="translate(68.606 207.299)" fill="#6c63ff" opacity="0.1"/>
    <g id="Mask_Group_9" data-name="Mask Group 9" transform="translate(35 18)" clip-path="url(#clip-path)">
      <g id="undraw_online_calendar_re_wk3t" transform="translate(107 307.154)">
        <rect id="Rectangle_6231" data-name="Rectangle 6231" width="85.226" height="53.071" transform="translate(0 6.244)" fill="#e6e6e6"/>
        <rect id="Rectangle_6232" data-name="Rectangle 6232" width="15.609" height="10.146" transform="translate(5.715 16.468)" fill="#fff"/>
        <rect id="Rectangle_6233" data-name="Rectangle 6233" width="15.609" height="10.146" transform="translate(25.11 16.468)" fill="#fff"/>
        <rect id="Rectangle_6234" data-name="Rectangle 6234" width="15.609" height="10.146" transform="translate(44.506 16.468)" fill="#fff"/>
        <rect id="Rectangle_6235" data-name="Rectangle 6235" width="15.609" height="10.146" transform="translate(63.901 16.468)" fill="#fff"/>
        <rect id="Rectangle_6236" data-name="Rectangle 6236" width="15.609" height="10.146" transform="translate(5.715 30.828)" fill="#fff"/>
        <rect id="Rectangle_6237" data-name="Rectangle 6237" width="15.609" height="10.146" transform="translate(25.11 30.828)" fill="#fff"/>
        <rect id="Rectangle_6238" data-name="Rectangle 6238" width="15.609" height="10.146" transform="translate(44.506 30.828)" fill="#fff"/>
        <rect id="Rectangle_6239" data-name="Rectangle 6239" width="15.609" height="10.146" transform="translate(63.901 30.828)" fill="#fff"/>
        <rect id="Rectangle_6240" data-name="Rectangle 6240" width="15.609" height="10.146" transform="translate(5.715 45.188)" fill="#fff"/>
        <rect id="Rectangle_6241" data-name="Rectangle 6241" width="15.609" height="10.146" transform="translate(25.11 45.188)" fill="#fff"/>
        <rect id="Rectangle_6242" data-name="Rectangle 6242" width="15.609" height="10.146" transform="translate(44.506 45.188)" fill="#fff"/>
        <rect id="Rectangle_6243" data-name="Rectangle 6243" width="15.609" height="10.146" transform="translate(63.901 45.188)" fill="#fff"/>
        <circle id="Ellipse_112" data-name="Ellipse 112" cx="2.341" cy="2.341" r="2.341" transform="translate(19.98 7.805)" fill="#fff"/>
        <circle id="Ellipse_113" data-name="Ellipse 113" cx="2.341" cy="2.341" r="2.341" transform="translate(58.69 7.805)" fill="#fff"/>
        <rect id="Rectangle_6244" data-name="Rectangle 6244" width="1.873" height="10.77" transform="translate(21.385)" fill="#e6e6e6"/>
        <rect id="Rectangle_6245" data-name="Rectangle 6245" width="1.873" height="10.77" transform="translate(60.095)" fill="#e6e6e6"/>
        <path id="Path_46330" data-name="Path 46330" d="M101.041,44.3a3.52,3.52,0,1,1-.546-1.886A3.52,3.52,0,0,1,101.041,44.3Z" transform="translate(-25.805 -22.757)" fill="#038da0"/>
        <path id="Path_46331" data-name="Path 46331" d="M100.5,42.412l-3.475,3.474c-.218-.338-1.435-1.909-1.435-1.909a4.923,4.923,0,0,1,.5-.44l1.009,1.345,3-3a3.515,3.515,0,0,1,.407.526Z" transform="translate(-25.805 -22.757)" fill="#fff"/>
        <path id="Path_46332" data-name="Path 46332" d="M62.25,58.658a3.52,3.52,0,1,1-.546-1.886,3.52,3.52,0,0,1,.546,1.886Z" transform="translate(-25.805 -22.757)" fill="#038da0"/>
        <path id="Path_46333" data-name="Path 46333" d="M61.7,56.773,58.23,60.247c-.218-.338-1.435-1.909-1.435-1.909a4.923,4.923,0,0,1,.5-.44L58.3,59.243l3-3A3.516,3.516,0,0,1,61.7,56.773Z" transform="translate(-25.805 -22.757)" fill="#fff"/>
        <path id="Path_46334" data-name="Path 46334" d="M42.854,58.658a3.52,3.52,0,1,1-.546-1.886,3.52,3.52,0,0,1,.546,1.886Z" transform="translate(-25.805 -22.757)" fill="#038da0"/>
        <path id="Path_46335" data-name="Path 46335" d="M42.309,56.773l-3.475,3.474c-.218-.338-1.435-1.909-1.435-1.909a4.923,4.923,0,0,1,.5-.44l1.009,1.345,3-3a3.515,3.515,0,0,1,.407.526Z" transform="translate(-25.805 -22.757)" fill="#fff"/>
      </g>
    </g>
  </g>
</svg>
