<svg xmlns="http://www.w3.org/2000/svg" width="19.5" height="19.5" viewBox="0 0 19.5 19.5">
  <path id="plus-square-Regular_1_" d="M602,1012.25h-6a6.758,6.758,0,0,0-6.75,6.75v6a6.758,6.758,0,0,0,6.75,6.75h6a6.758,6.758,0,0,0,6.75-6.75v-6A6.758,6.758,0,0,0,602,1012.25Zm5.25,12.75a5.256,5.256,0,0,1-5.25,5.25h-6a5.256,5.256,0,0,1-5.25-5.25v-6a5.256,5.256,0,0,1,5.25-5.25h6a5.256,5.256,0,0,1,5.25,5.25Zm-3.5-3a.75.75,0,0,1-.75.75h-3.25V1026a.75.75,0,0,1-1.5,0v-3.25H595a.75.75,0,0,1,0-1.5h3.25V1018a.75.75,0,0,1,1.5,0v3.25H603A.75.75,0,0,1,603.75,1022Z" transform="translate(-589.25 -1012.25)" fill="#603881"/>
</svg>
