<svg id="Rounded_Button" data-name="Rounded Button" xmlns="http://www.w3.org/2000/svg" width="30" height="30" viewBox="0 0 30 30">
  <path id="Path_205509" data-name="Path 205509" d="M15,0A15,15,0,1,1,0,15,15,15,0,0,1,15,0Z" fill="#038da0"/>
  <g id="phone-Filled" transform="translate(7.8 7.8)">
    <rect id="Path" width="14.4" height="14.4" fill="rgba(255,255,255,0)"/>
    <path id="phone-Filled_1_" d="M744.293,2854.007a2.565,2.565,0,0,1-1.945.893h-.07a9.027,9.027,0,0,1-8.778-8.778,2.568,2.568,0,0,1,.9-2.024,2.417,2.417,0,0,1,2.009-.559,2.143,2.143,0,0,1,.284.072.9.9,0,0,1,.6.714l.4,2.553a.91.91,0,0,1-.325.847,1.908,1.908,0,0,1-.157.116.323.323,0,0,0-.13.4,5.912,5.912,0,0,0,3.076,3.076.325.325,0,0,0,.4-.133c.028-.041.058-.081.088-.119a.907.907,0,0,1,.859-.329l2.6.433a.884.884,0,0,1,.712.62c.016.058.032.124.045.2A2.445,2.445,0,0,1,744.293,2854.007Z" transform="translate(-732 -2842)" fill="#fff"/>
  </g>
</svg>
