<svg xmlns="http://www.w3.org/2000/svg" xmlns:xlink="http://www.w3.org/1999/xlink" width="28.663" height="25.837" viewBox="0 0 28.663 25.837">
  <defs>
    <clipPath id="clip-path">
      <rect id="Rectangle_6278" data-name="Rectangle 6278" width="28.663" height="25.837" transform="translate(0 0.317)" fill="#ce0c3d" stroke="#707070" stroke-width="1"/>
    </clipPath>
  </defs>
  <g id="sadad" transform="translate(0 -0.317)" clip-path="url(#clip-path)">
    <g id="Asset_1" transform="translate(0 7.32)">
      <g id="Layer_1_1_">
        <path id="Path_13" d="M4.787-13.351H3.32C2.628-11.227,1.462-7.7.82-5.766a3.2,3.2,0,0,1-.24.535H1.6a.8.8,0,0,0,.656-.46.792.792,0,0,0,.057-.127l.613-1.851h0c.76-2.3,1.79-5.429,1.865-5.683" transform="translate(6.812 13.351)" fill="#929497"/>
        <path id="Path_14" d="M21.366-8.64l-.613,1.855a.833.833,0,0,1-.71.579H19.027a3.042,3.042,0,0,0,.258-.579L19.9-8.64h-1.47l-.61,1.855a.837.837,0,0,1-.71.579H16.086a3.285,3.285,0,0,0,.258-.579l.613-1.855h-1.47l-.61,1.855a.833.833,0,0,1-.71.579h-4.7a2.952,2.952,0,0,0,.262-.567l.154-.476c.4-1.221-.169-2.2-1.27-2.2H6.945L6.41-7.832H8.089c.291,0,.441.258.334.579l-.161.476a.82.82,0,0,1-.707.567H5.137L4.6-4.586H19.519a3.171,3.171,0,0,0,2.7-2.191l.617-1.866Z" transform="translate(5.823 12.702)" fill="#ed7624"/>
        <path id="Path_15" d="M-5.335-4.581H-9.219l.534-1.625H-4.8a.846.846,0,0,0,.717-.579l.151-.46c.1-.321-.043-.579-.334-.579H-6.677l.534-1.625h2.41c1.1,0,1.668.987,1.27,2.2l-.151.46a3.2,3.2,0,0,1-2.722,2.2" transform="translate(9.219 12.701)" fill="#ed7624"/>
        <path id="Path_16" d="M4.512-1.388H4.333l-.068.2h.179Z" transform="translate(5.906 11.359)" fill="#929497"/>
        <path id="Path_17" d="M4.7-.75a.338.338,0,0,1-.136.19.376.376,0,0,1-.186.036H3.93a.288.288,0,0,1-.208-.059q-.07-.071-.011-.25l.1-.305H3.632l-.1.305c-.115.345,0,.519.355.519h.6a.375.375,0,0,0,.351-.293l.179-.539H4.834Z" transform="translate(6.098 11.319)" fill="#929497"/>
        <path id="Path_18" d="M4.931-1.388H4.748l-.065.2h.179Z" transform="translate(5.803 11.359)" fill="#929497"/>
        <path id="Path_19" d="M6.371-.788a.484.484,0,0,1,.1-.178.218.218,0,0,1,.169-.079q.129,0,.129.143l.186-.083a.232.232,0,0,0-.226-.238H6.712A.481.481,0,0,0,6.4-1.1a.708.708,0,0,0-.212.305A.5.5,0,0,0,6.156-.6h-.3A.186.186,0,0,1,5.722-.63C5.7-.658,5.7-.717,5.722-.8l.255-.765H5.8l-.276.844a.339.339,0,0,0-.011.238.17.17,0,0,0,.176.1h1.08L6.834-.6h-.47a.26.26,0,0,1,0-.194" transform="translate(5.604 11.389)" fill="#929497"/>
        <path id="Path_20" d="M9.928-1.593H9.749l-.068.2H9.86Z" transform="translate(4.576 11.393)" fill="#929497"/>
        <path id="Path_21" d="M9.193-1.167a.579.579,0,0,0-.513.42.493.493,0,0,0-.025.218H8.2l.072-.214c.079-.238,0-.412-.208-.412a.571.571,0,0,0-.506.4c-.079.242.022.424.222.424h.176a.258.258,0,0,1-.23.143l-.054.159a.469.469,0,0,0,.459-.305h.778a.575.575,0,0,0,.509-.42c.079-.238-.007-.428-.23-.428M8.016-.537H7.851c-.1,0-.136-.1-.1-.226A.28.28,0,0,1,8-.969c.1,0,.129.075.1.186Zm.961.02c-.111,0-.151-.107-.108-.238a.3.3,0,0,1,.255-.234c.111,0,.154.1.108.242a.305.305,0,0,1-.255.23" transform="translate(5.103 11.324)" fill="#929497"/>
        <path id="Path_22" d="M13.215-.786a.524.524,0,0,1-.057.131.159.159,0,0,1-.136.059H12.6a.514.514,0,0,0,.108-.214l.251-.765h-.183l-.255.765a.436.436,0,0,1-.065.139.162.162,0,0,1-.136.063h-.276l.018-.052a.408.408,0,0,0,0-.305.225.225,0,0,0-.226-.123.474.474,0,0,0-.308.119.658.658,0,0,0-.2.305.375.375,0,0,1-.018.059H10.93c.1-.313.057-.511-.136-.594a.389.389,0,0,0-.09-.028h-.172l-.061.186a.743.743,0,0,1,.161.016c.154.04.194.178.115.42h-.6L10.08-.4h1.245a.224.224,0,0,0,.244.151A.5.5,0,0,0,11.92-.4h1.087a.4.4,0,0,0,.387-.333l.276-.848h-.186Zm-1.442.305a.215.215,0,0,1-.154.067c-.115,0-.151-.107-.108-.238a.437.437,0,0,1,.1-.159.212.212,0,0,1,.158-.071.11.11,0,0,1,.115.075.264.264,0,0,1-.011.166.407.407,0,0,1-.1.159" transform="translate(4.477 11.391)" fill="#929497"/>
        <path id="Path_23" d="M15.759-1.113a.389.389,0,0,0-.09-.028H15.5l-.061.186a.743.743,0,0,1,.161.016c.154.04.194.178.115.42h-.6l-.068.206h.785L15.9-.519c.1-.313.05-.511-.143-.594" transform="translate(3.257 11.318)" fill="#929497"/>
        <path id="Path_24" d="M16.309-.383h.183l.391-1.181H16.7Z" transform="translate(2.947 11.388)" fill="#929497"/>
        <path id="Path_25" d="M19.11-.727c-.043.135-.115.2-.208.2h-.176a.509.509,0,0,0,.111-.222l.136-.4H18.79l-.136.42c-.043.135-.115.2-.208.2h-.172V-.537a.638.638,0,0,0,.1-.214l.136-.4h-.2l-.136.4c-.047.147-.118.214-.212.214h-.341c.1-.305.057-.511-.136-.594a.389.389,0,0,0-.09-.028h-.172l-.061.186a.743.743,0,0,1,.161.016c.154.04.194.178.115.42h-.6l-.068.206h2.08a.556.556,0,0,0,.463-.436l.133-.392h-.194Z" transform="translate(2.832 11.32)" fill="#929497"/>
        <path id="Path_26" d="M21.711-1.148h-.466a.621.621,0,0,0-.552.487l-.2.642h.186l.2-.61c.065-.2.186-.321.308-.321h.136a.678.678,0,0,0-.118.214c-.079.238.011.424.233.424a.583.583,0,0,0,.509-.42c.079-.242-.007-.428-.23-.428M21.5-.5c-.111,0-.154-.107-.108-.238A.3.3,0,0,1,21.65-.97c.115,0,.151.1.108.242A.305.305,0,0,1,21.5-.5" transform="translate(1.92 11.321)" fill="#929497"/>
        <path id="Path_27" d="M24.863-1.588h-.179l-.068.2h.179Z" transform="translate(0.906 11.392)" fill="#929497"/>
        <path id="Path_28" d="M26.157-1.588h-.179l-.065.2h.179Z" transform="translate(0.587 11.392)" fill="#929497"/>
        <path id="Path_29" d="M25.035-1.216,24.9-.788a.524.524,0,0,1-.057.131A.159.159,0,0,1,24.7-.6h-.3c.136-.416.057-.626-.222-.626a.9.9,0,0,0-.592.317l.24-.662H23.65L23.331-.6h-.38a.186.186,0,0,1-.136-.032c-.025-.028-.025-.087,0-.174l.255-.765H22.89l-.276.844a.321.321,0,0,0-.011.238.17.17,0,0,0,.176.1h1.9a.4.4,0,0,0,.387-.333l.165-.5Zm-.828.622h-.735a1,1,0,0,1,.631-.444c.158,0,.2.151.129.384a.2.2,0,0,1-.022.059" transform="translate(1.405 11.389)" fill="#929497"/>
      </g>
    </g>
  </g>
</svg>
