<svg id="Layer_1" data-name="Layer 1" xmlns="http://www.w3.org/2000/svg" xmlns:xlink="http://www.w3.org/1999/xlink" viewBox="0 0 1713.35 1131.65"><defs><style>.cls-1,.cls-6{fill:none;}.cls-2{fill:#048fa2;}.cls-3{clip-path:url(#clip-path);}.cls-4{fill:#5f3880;}.cls-5{fill:#fff;}.cls-6{stroke:#048fa2;stroke-miterlimit:10;stroke-width:1.11px;}</style><clipPath id="clip-path"><rect class="cls-1" width="1713.35" height="1131.65"/></clipPath></defs><rect class="cls-2" x="409.34" y="567.68" width="10.24" height="9.42"/><rect class="cls-2" x="424.82" y="567.68" width="10.16" height="9.42"/><g class="cls-3"><path class="cls-2" d="M557.14,527.47c0,5.32-2,8-5.81,8H462c-4.91,0-7.78-1.22-9.75-5-3.93-7.54-10.07-11.31-18.34-11.31a41.4,41.4,0,0,0-5,.09v10a7.83,7.83,0,0,1,2-.25,7.36,7.36,0,0,1,7.61,7.21c0,7.62-8.43,13.19-17.28,13.19-11.63,0-18.1-7.37-18.1-18.35v-8.76H391.65v9.83c0,15.89,12.94,27.93,29.32,27.93,13.36,0,25-7.38,27.53-18.43,3.1,3.1,7.82,4.73,14.17,4.82h91.11c4.76,0,8.52-1.64,11.23-5a16.41,16.41,0,0,0,3.6-10.81v-21.3H557.14Z"/><rect class="cls-2" x="557.63" y="493.72" width="10.24" height="9.42"/><rect class="cls-2" x="730.2" y="493.72" width="10.24" height="9.42"/><path class="cls-2" d="M729.7,527.47c0,5.32-2,8-5.81,8h-5v-.08H617.51c0-12.37-5.65-20.48-17-24.49-3-1.06-8.1-1.56-15.31-1.56V519c14.58,0,20.8,5.08,20.8,16.54H576.31v11h150c4.75,0,8.51-1.64,11.22-5a16.41,16.41,0,0,0,3.6-10.81v-21.3H729.7Z"/><path class="cls-2" d="M951.22,528.12c0,4.92-2,7.37-5.81,7.37h-7.29a24,24,0,0,0,1.39-8.27V509.36H928v18.76c0,4.92-2,7.37-5.81,7.37h-7.29a24,24,0,0,0,1.39-8.27V509.36H904.78v18.27a11.41,11.41,0,0,1-.49,4.26,5.26,5.26,0,0,1-5.33,3.6H770.82c-8.43,0-9.83-3-9.83-8.52V493.64H749.53V533c0,8.44,5.08,13.52,13.84,13.52H945.82a16.07,16.07,0,0,0,11-4.34c4-3.61,6-8.6,6-15V509.36H951.22Z"/><path class="cls-4" d="M1347.29,170.71a256.13,256.13,0,0,0-34.69,2.42,197.3,197.3,0,0,1,104.75,32.68A167.08,167.08,0,0,1,1450.17,227c40.13,33.17,60.34,76.8,64.42,128.4,1.52,19.25,6,36.37,18.8,51.4a151.38,151.38,0,0,1,20.43,31.74c6.81,14,3.07,21.65-10.86,27.79-1.22.53-2.41,1.08-3.63,1.59-17.18,7.25-17.07,8.05-11.21,25.87a16.06,16.06,0,0,1,.6,6c-.11.59-1.41,7.06-7,9.11,3,2,4.83,6.84,3.35,12-3.62,10-11,18-16.22,27.23-2.94,5.14-2.56,14-.49,20,12.08,35.14-7.07,41.25-31.17,41.7-20.38.38-41-.42-61,2.71-37.59,5.88-58.31,27.26-65.39,65-.06.33-.09.64-.15,1,138.7-1.8,250.59-114.74,250.59-253.86,0-140.24-113.7-253.94-254-253.94"/><path class="cls-4" d="M1320.71,318.3s11.34-19-10.86-31.9c-8.9,13-.5,29.81,9.63,32.3-3.32-10.38-7.46-24.05-7.46-24.05Z"/><path class="cls-2" d="M1348.31,329.23s22.31,0,22.35-25.41c-15.85-1-26.28,14.68-23.32,24.57,7.38-8.08,17.22-18.53,17.22-18.53Z"/><path class="cls-2" d="M1287.18,336.36s-2-21.94-27.64-19.7c.41,15.68,17.17,24.53,26.88,20.74-8.82-6.54-20.25-15.27-20.25-15.27Z"/><path class="cls-2" d="M1221.44,355.4s106,39.76,93,128.58c-2.73,23.1-41.46,75.86-68.19,72.74,58.45-2.91,100.39-32.35,98.8-99.67S1235.65,355.29,1221.44,355.4"/><path class="cls-2" d="M1343.1,358.4c4.69,13.14.62,26.52-9.06,29.88s-21.33-4.57-26-17.71-.62-26.52,9.07-29.89,21.32,4.57,26,17.72"/><path class="cls-2" d="M1416.84,330.11s-76.26,25.32-67.13,102.84c8.23,70-11.06,91.52-20.6,102.15,0,0,41.79-16.63,39.67-75.71-2.08-58.08.86-71.83,48.06-129.28"/><path class="cls-4" d="M1284.54,512.09s49.7-21.29,57.39-11.72S1315.44,535,1315.44,535h43.42s-50.41,11.4-54.45,12.14-34.59-5.14-35.32-6.62-6.26-9.57-5.89-10.68,21.34-17.71,21.34-17.71"/><path class="cls-4" d="M1296.48,591.56c-5.29,0-10.59-.22-15.76-.65-.8-.07-1.6-.16-2.4-.25l-1.29-.14-1.63-.16c-1.52-.14-3.09-.29-4.67-.51h-.25l-.08,0h0a192.44,192.44,0,0,1-58.9-17.86,94.51,94.51,0,0,1-13.59-7.32,200.42,200.42,0,0,1-77.75-84.44,206.84,206.84,0,0,1-19.5-117.66l0-.16,0-.23c5.54-43.7,24.83-86.28,54.32-119.9,29.75-33.91,68.06-56.58,107.9-63.83l1.34,6.9c-9.1,1.88-32.57,12.84-56.23,31.3-20.1,15.68-46.68,41.7-61.63,77.92h.3l-2.2,5.11a177.87,177.87,0,0,0-13.19,48.14C1122.66,416,1154,483.16,1211,518.93a167.69,167.69,0,0,0,19.71,10.61c5.23-1.47,14.37-3.95,24.12-6.14,13.29-3,33-8.46,51.46-17.46,12.16-5.92,24-9.6,30.82-9.6,1.18,0,4.76,0,6.43,2.64,2.89,4.57-2,9.9-19,24.68A139.11,139.11,0,0,0,1311,537.19c6,2.27,17,6.12,26.81,7.75a49,49,0,0,0,8.08.78h.85c1.81-.06,3.55-.07,5.4-.08,14.12-.1,31.69-.23,63.12-21.39,15.34-10.34,23.21-14,30.1-14a20.16,20.16,0,0,1,2.35.16,48.26,48.26,0,0,1,5.57,1.06c1,.23,2,.47,3.14.7l7,1.43-5.4,4.67c-1.77,1.53-3.75,3.34-6,5.43-12.16,11.07-32.49,29.59-62.71,43.84a194.52,194.52,0,0,1-23.39,10.9,190.3,190.3,0,0,1-69.4,13.14"/><path class="cls-5" d="M1263.54,181.86c-18.14,3.76-94.87,42.71-122.38,116.37h.1a181,181,0,0,0-13.45,49.1c-9.1,71.84,24.9,139.2,81.36,174.58a170,170,0,0,0,21.29,11.36c5.52-1.57,15.08-4.17,25.18-6.44,15.61-3.52,34.73-9.2,52.22-17.73,13-6.35,23.91-9.25,29.28-9.25,1.84,0,3,.34,3.46,1,1.63,2.59-8.23,11.38-18.36,20.15a143,143,0,0,0-15.4,15.66c-1,1.22-1.66,2-1.66,2s17.17,7.28,32.07,9.75a54,54,0,0,0,8.65.83c.34,0,.67,0,1,0,15.76-.48,34.07,2.35,70.33-22.07,15.83-10.67,22.61-13.4,28.14-13.4a18.1,18.1,0,0,1,2,.13c2.57.29,5.08,1,8.39,1.71-11.61,10-32.79,32.19-68.06,48.79a190.46,190.46,0,0,1-23.07,10.77A187.24,187.24,0,0,1,1296.48,588c-5.12,0-10.29-.2-15.47-.63-1.2-.1-2.41-.27-3.62-.39-2.06-.21-4.12-.37-6.18-.65l-.19,0-.18,0A188.62,188.62,0,0,1,1213,568.76a90.57,90.57,0,0,1-13.21-7.1c-66-39-106.08-116.2-95.63-198.69l0-.18c0-.06,0-.12,0-.18,11.23-88.59,78.28-166,159.37-180.75m-1.26-6.91a178.25,178.25,0,0,0-59.89,22.9,211.11,211.11,0,0,0-50,42.07c-29.93,34.13-49.52,77.35-55.16,121.72,0,.1,0,.19,0,.28h0v.16A210.35,210.35,0,0,0,1117,481.74a207.4,207.4,0,0,0,33.36,48.79A201.43,201.43,0,0,0,1196,567.6a96.46,96.46,0,0,0,14,7.53,195.91,195.91,0,0,0,59.75,18.14l.21.05.34,0c1.65.22,3.25.37,4.79.52l1.62.15,1.23.14c.81.09,1.64.19,2.52.26,5.25.44,10.65.66,16,.66a194,194,0,0,0,70.68-13.37,200.62,200.62,0,0,0,23.71-11.05c30.64-14.47,51.19-33.18,63.48-44.37,2.28-2.08,4.25-3.87,6-5.37l10.8-9.34-14-2.86c-1.08-.22-2.08-.45-3.06-.68a51,51,0,0,0-6-1.13h0a25.1,25.1,0,0,0-2.72-.17c-7.78,0-15.87,3.68-32.07,14.6-30.54,20.57-46.82,20.69-61.18,20.79-1.86,0-3.63,0-5.43.08h-.79a46.23,46.23,0,0,1-7.49-.74,133.47,133.47,0,0,1-21.3-5.79c2.62-2.78,5.93-6.07,9.73-9.37,5-4.33,10.21-8.89,14-12.8,3.17-3.24,9.75-10,5.67-16.42-1.78-2.83-4.94-4.27-9.39-4.27-7.35,0-19.75,3.82-32.36,10-18.14,8.85-37.58,14.23-50.69,17.19-9.09,2-17.65,4.33-23.06,5.84A164.64,164.64,0,0,1,1212.9,516c-55.92-35-86.58-100.89-78.11-167.74A174,174,0,0,1,1147.71,301l4.4-10.2h-.28c15-32.9,39.54-56.78,58.35-71.45,25.43-19.84,47.89-29.21,54.78-30.63Z"/><path class="cls-4" d="M496.46,749.12V737.38a56.05,56.05,0,0,1-5.18,3.8c-4.15,2.76-21.08,9.67-37.31,9.67q-32.13,0-53.89-21.77c-14.5-14.84-21.76-32.47-21.76-53.54,0-20.72,7.26-38.34,21.76-53.19,14.86-14.86,32.82-22.11,53.89-22.11,20.38,0,38.34,6.91,53.2,20.38s22.45,32.13,22.45,56v72.54Zm-42.49-30c23.83,0,42.49-18.31,42.49-43.53,0-24.87-18-43.52-42.49-43.52-23.83,0-42.49,18.65-42.49,43.52,0,25.22,18.66,43.53,42.49,43.53"/><path class="cls-4" d="M1003,611.47v-96l33.16,26.21V672.27c0,23.83-7.59,42.48-22.45,56s-32.81,20.38-53.19,20.38c-21.07,0-39-7.25-53.89-22.1-14.51-14.86-21.76-32.47-21.76-53.2,0-21.07,7.25-38.69,21.76-53.19C921.13,605.25,939.09,598,960.51,598c16.23,0,31.43,5.53,38,10ZM960.51,716.82c24.52,0,42.48-18.65,42.48-43.52,0-25.22-18.65-43.52-42.48-43.52S918,648.08,918,673.3c0,24.87,18.65,43.52,42.49,43.52"/><path class="cls-4" d="M592.16,750H559V670.53c0-23.48,6.22-40.75,18.31-52.16a65.22,65.22,0,0,1,88.42,0c12.44,11.41,18.66,29,18.66,52.16V750H651.23V670.53c0-24.52-11.75-37.65-29.71-37.65s-29.36,12.79-29.36,37.65Z"/><path class="cls-4" d="M1092.75,750h-33.16V670.53c0-23.48,6.22-40.75,18.31-52.16a65.22,65.22,0,0,1,88.42,0c12.44,11.41,18.66,29,18.66,52.16V750h-33.16V670.53c0-24.52-11.75-37.65-29.71-37.65s-29.36,12.79-29.36,37.65Z"/><path class="cls-4" d="M1300,687.85V608.41l33.16,26.22v138.2c0,43.18-25.56,69.43-62.87,69.43-19,0-34.54-6.22-47.32-18.31-12.43-12.09-18.65-28-19-47.67h33.16c.35,19.7,11.75,35.93,32.47,35.93,19.69,0,30.4-14.86,30.4-39.38V747.61c-9.33,6.57-20,9.67-32.81,9.67-16.24,0-30.4-5.87-42.15-17.61-11.4-12.09-17.27-29.37-17.27-51.82V608.41L1241,634.63v53.22c0,24.88,11.75,37.65,29.71,37.65,17.62,0,29.36-12.43,29.36-37.65"/><path class="cls-4" d="M822.84,693.14h0L821,698.29c-2.83,6.83-12.9,17.37-27.25,21.18a42.48,42.48,0,0,1-47.12-18.56l109.5-29.12c-3-13.87-6-43.79-38.2-61.68-17.09-9.5-35.2-11.38-54.89-6.14-20.37,5.41-35.53,16.95-46.06,35.12s-13,37.07-7.7,57.09c5.41,20.36,16.95,35.53,34.79,46.15,18.08,10.21,37,12.69,57.33,7.28,19.7-5.24,35.17-18.29,42.39-28.78a89,89,0,0,0,8.86-17.73c1.57-4.32,2.54-7.47,3.19-10Zm-83.56-21c.66-17.7,11.76-32.43,31.78-37.76,19.7-5.24,39.18,3.52,45.67,17.17Z"/><path class="cls-4" d="M298.59,615.44c-28-8-41.1-14.86-41.1-34.2,0-17.62,13.81-30.74,40.06-30.74A90.12,90.12,0,0,1,325.88,555c6.53,2.19,11.5,4,15,5.52V524.12A123,123,0,0,0,297.55,516c-45.94,0-76,26.25-76,65.28,0,17.62,4.84,31.43,14.51,42.14,10,10.36,27.29,19,51.81,26.25,24.53,6.92,36.62,18.66,36.62,35.58,0,17.62-13.82,31.09-39.73,31.09A95.31,95.31,0,0,1,237.45,704v37.87a134.43,134.43,0,0,0,47,9q37.82,0,57-19.7c12.78-13.12,19-28.32,19-45.94,0-35.92-18-57.34-61.83-69.77"/><path class="cls-2" d="M615.31,845.35v-4.07a17.83,17.83,0,0,1-1.8,1.32A29.19,29.19,0,0,1,600.59,846a26.09,26.09,0,1,1,0-52.18A26.69,26.69,0,0,1,619,800.83c5.15,4.67,7.78,11.13,7.78,19.39v25.13Zm-14.72-10.41c8.25,0,14.72-6.35,14.72-15.08s-6.23-15.08-14.72-15.08c-8.26,0-14.72,6.46-14.72,15.08s6.46,15.08,14.72,15.08"/><path class="cls-6" d="M615.31,845.35v-4.07a17.83,17.83,0,0,1-1.8,1.32A29.19,29.19,0,0,1,600.59,846a26.09,26.09,0,1,1,0-52.18A26.69,26.69,0,0,1,619,800.83c5.15,4.67,7.78,11.13,7.78,19.39v25.13Zm-14.72-10.41c8.25,0,14.72-6.35,14.72-15.08s-6.23-15.08-14.72-15.08c-8.26,0-14.72,6.46-14.72,15.08S592.33,834.94,600.59,834.94Z"/><path class="cls-2" d="M547.15,793.68v11h-5.86c-11.37,0-17.95,5.39-17.95,14.48s6.58,14.48,17.95,14.48h5.86v11h-5.86c-9.34,0-16.64-2.39-21.78-7.18a24.21,24.21,0,0,1-7.66-18.31A23.77,23.77,0,0,1,519.51,801c5.14-4.9,12.44-7.3,21.78-7.3Z"/><path class="cls-6" d="M547.15,793.68v11h-5.86c-11.37,0-17.95,5.39-17.95,14.48s6.58,14.48,17.95,14.48h5.86v11h-5.86c-9.34,0-16.64-2.39-21.78-7.18a24.21,24.21,0,0,1-7.66-18.31A23.77,23.77,0,0,1,519.51,801c5.14-4.9,12.44-7.3,21.78-7.3Z"/><path class="cls-2" d="M751.86,793.68v11H746c-11.37,0-18,5.39-18,14.48s6.58,14.48,18,14.48h5.87v11H746c-9.33,0-16.63-2.39-21.78-7.18a24.23,24.23,0,0,1-7.65-18.31A23.8,23.8,0,0,1,724.21,801c5.15-4.9,12.45-7.3,21.78-7.3Z"/><path class="cls-6" d="M751.86,793.68v11H746c-11.37,0-18,5.39-18,14.48s6.58,14.48,18,14.48h5.87v11H746c-9.33,0-16.63-2.39-21.78-7.18a24.23,24.23,0,0,1-7.65-18.31A23.8,23.8,0,0,1,724.21,801c5.15-4.9,12.45-7.3,21.78-7.3Z"/><path class="cls-2" d="M431.72,798.44V765.17l11.49,9.08V819.5c0,8.26-2.63,14.72-7.78,19.39A26.73,26.73,0,0,1,417,846a25.93,25.93,0,0,1-26.2-26.09A25.93,25.93,0,0,1,417,793.77c5.63,0,10.89,1.92,13.16,3.47ZM417,834.94c8.5,0,14.72-6.46,14.72-15.08s-6.46-15.08-14.72-15.08-14.72,6.34-14.72,15.08,6.47,15.08,14.72,15.08"/><path class="cls-6" d="M431.72,798.44V765.17l11.49,9.08V819.5c0,8.26-2.63,14.72-7.78,19.39A26.73,26.73,0,0,1,417,846a25.93,25.93,0,0,1-26.2-26.09A25.93,25.93,0,0,1,417,793.77c5.63,0,10.89,1.92,13.16,3.47ZM417,834.94c8.5,0,14.72-6.46,14.72-15.08s-6.46-15.08-14.72-15.08-14.72,6.34-14.72,15.08S408.75,834.94,417,834.94Z"/><path class="cls-2" d="M472.5,770a7.11,7.11,0,1,1,0,10.06,7.15,7.15,0,0,1,0-10.06m-.71,71.68v-51l11.48,9.08v41.89Z"/><path class="cls-6" d="M472.5,770a7.11,7.11,0,1,1,0,10.06A7.15,7.15,0,0,1,472.5,770Zm-.71,71.68v-51l11.48,9.08v41.89Z"/><polygon class="cls-2" points="654.02 844.87 654.02 764.69 665.51 773.77 665.51 844.87 654.02 844.87"/><polygon class="cls-6" points="654.02 844.87 654.02 764.69 665.51 773.77 665.51 844.87 654.02 844.87"/><polygon class="cls-2" points="1026.97 844.87 1026.97 764.69 1038.45 773.77 1038.45 844.87 1026.97 844.87"/><polygon class="cls-6" points="1026.97 844.87 1026.97 764.69 1038.45 773.77 1038.45 844.87 1026.97 844.87"/><path class="cls-2" d="M259,815.45v31.12H247.55V815.45c0-6.34-2.4-9.45-7.06-9.45s-6.94,3.11-6.94,9.45v31.12H222.06V815.45c0-13.4,7.54-20.46,18.07-20.46,5.86,0,10.17,2.16,13.16,6.46,3.11-4.3,7.54-6.46,13.4-6.46,10.41,0,17.83,7.18,17.83,20.46v31.12H273V815.45c0-6.34-2.27-9.45-6.94-9.45s-7.06,3.11-7.06,9.45"/><path class="cls-6" d="M259,815.45v31.12H247.55V815.45c0-6.34-2.4-9.45-7.06-9.45s-6.94,3.11-6.94,9.45v31.12H222.06V815.45c0-13.4,7.54-20.46,18.07-20.46,5.86,0,10.17,2.16,13.16,6.46,3.11-4.3,7.54-6.46,13.4-6.46,10.41,0,17.83,7.18,17.83,20.46v31.12H273V815.45c0-6.34-2.27-9.45-6.94-9.45S259,809.11,259,815.45Z"/><path class="cls-2" d="M893.74,815.45v31.12H882.25V815.45c0-6.34-2.39-9.45-7.06-9.45s-6.94,3.11-6.94,9.45v31.12H856.76V815.45c0-13.4,7.54-20.46,18.07-20.46,5.86,0,10.17,2.16,13.16,6.46,3.11-4.3,7.54-6.46,13.41-6.46,10.41,0,17.82,7.18,17.82,20.46v31.12H907.74V815.45c0-6.34-2.28-9.45-6.94-9.45s-7.06,3.11-7.06,9.45"/><path class="cls-6" d="M893.74,815.45v31.12H882.25V815.45c0-6.34-2.39-9.45-7.06-9.45s-6.94,3.11-6.94,9.45v31.12H856.76V815.45c0-13.4,7.54-20.46,18.07-20.46,5.86,0,10.17,2.16,13.16,6.46,3.11-4.3,7.54-6.46,13.41-6.46,10.41,0,17.82,7.18,17.82,20.46v31.12H907.74V815.45c0-6.34-2.28-9.45-6.94-9.45S893.74,809.11,893.74,815.45Z"/><path class="cls-2" d="M785.82,797.74a26.15,26.15,0,0,1,37,37,26.44,26.44,0,0,1-37,0,26.13,26.13,0,0,1,0-37m3.83,18.43a15.08,15.08,0,0,0,4.19,10.89,14.63,14.63,0,0,0,10.53,4.18,14.16,14.16,0,0,0,10.41-4.18,14.73,14.73,0,0,0,4.31-10.89,14.24,14.24,0,0,0-4.31-10.77,13.77,13.77,0,0,0-10.41-4.31,14.23,14.23,0,0,0-10.53,4.31,14.57,14.57,0,0,0-4.19,10.77"/><path class="cls-6" d="M785.82,797.74a26.15,26.15,0,0,1,37,37,26.44,26.44,0,0,1-37,0,26.13,26.13,0,0,1,0-37Zm3.83,18.43a15.08,15.08,0,0,0,4.19,10.89,14.63,14.63,0,0,0,10.53,4.18,14.16,14.16,0,0,0,10.41-4.18,14.73,14.73,0,0,0,4.31-10.89,14.24,14.24,0,0,0-4.31-10.77,13.77,13.77,0,0,0-10.41-4.31,14.23,14.23,0,0,0-10.53,4.31A14.57,14.57,0,0,0,789.65,816.17Z"/><path class="cls-2" d="M957,842.24v32.9l-11.49-7.56v-46.4c0-8.26,2.63-14.72,7.78-19.39a26.67,26.67,0,0,1,18.43-7.06,26.15,26.15,0,0,1,26.2,26.09,25.75,25.75,0,0,1-26.2,26.08c-5.63,0-11-1.91-13-3.47Zm14.72-36.5c-8.5,0-14.72,6.46-14.72,15.08s6.46,15.07,14.72,15.07,14.72-6.34,14.72-15.07-6.47-15.08-14.72-15.08"/><path class="cls-6" d="M957,842.24v32.9l-11.49-7.56v-46.4c0-8.26,2.63-14.72,7.78-19.39a26.67,26.67,0,0,1,18.43-7.06,26.15,26.15,0,0,1,26.2,26.09,25.75,25.75,0,0,1-26.2,26.08c-5.63,0-11-1.91-13-3.47Zm14.72-36.5c-8.5,0-14.72,6.46-14.72,15.08s6.46,15.07,14.72,15.07,14.72-6.34,14.72-15.07S980,805.74,971.74,805.74Z"/><polygon class="cls-2" points="1137.16 841.65 1152.35 815.68 1137.75 790.68 1150.44 790.68 1158.69 804.8 1166.95 790.68 1179.28 790.68 1164.92 815.45 1180.23 841.65 1167.55 841.65 1158.58 826.34 1149.48 841.65 1137.16 841.65"/><polygon class="cls-6" points="1137.16 841.65 1152.35 815.68 1137.75 790.68 1150.44 790.68 1158.69 804.8 1166.95 790.68 1179.28 790.68 1164.92 815.45 1180.23 841.65 1167.55 841.65 1158.58 826.34 1149.48 841.65 1137.16 841.65"/><path class="cls-2" d="M352.05,826.46h0l-.65,1.78c-1,2.37-4.46,6-9.44,7.34a14.72,14.72,0,0,1-16.32-6.43l37.93-10.09c-1-4.8-2.08-15.17-13.23-21.37a24.52,24.52,0,0,0-19-2.12,26.14,26.14,0,0,0-18.63,31.94A25.75,25.75,0,0,0,344.61,846a27.19,27.19,0,0,0,14.68-10,30.91,30.91,0,0,0,3.07-6.14,35.66,35.66,0,0,0,1.1-3.45Zm-28.95-7.29c.23-6.13,4.08-11.23,11-13.08s13.58,1.22,15.82,5.95Z"/><path class="cls-6" d="M352.05,826.46h0l-.65,1.78c-1,2.37-4.46,6-9.44,7.34a14.72,14.72,0,0,1-16.32-6.43l37.93-10.09c-1-4.8-2.08-15.17-13.23-21.37a24.52,24.52,0,0,0-19-2.12,26.14,26.14,0,0,0-18.63,31.94A25.75,25.75,0,0,0,344.61,846a27.19,27.19,0,0,0,14.68-10,30.91,30.91,0,0,0,3.07-6.14,35.66,35.66,0,0,0,1.1-3.45Zm-28.95-7.29c.23-6.13,4.08-11.23,11-13.08s13.58,1.22,15.82,5.95Z"/><path class="cls-2" d="M1102.2,826.46h0l-.64,1.78c-1,2.37-4.47,6-9.44,7.34a14.72,14.72,0,0,1-16.32-6.43l37.93-10.09c-1-4.8-2.09-15.17-13.23-21.37a24.54,24.54,0,0,0-19-2.12,26.15,26.15,0,0,0-18.62,31.94A25.74,25.74,0,0,0,1094.75,846a27.18,27.18,0,0,0,14.69-10,30.91,30.91,0,0,0,3.07-6.14c.54-1.5.88-2.59,1.1-3.45Zm-29-7.29c.23-6.13,4.07-11.23,11-13.08s13.57,1.22,15.82,5.95Z"/><path class="cls-6" d="M1102.2,826.46h0l-.64,1.78c-1,2.37-4.47,6-9.44,7.34a14.72,14.72,0,0,1-16.32-6.43l37.93-10.09c-1-4.8-2.09-15.17-13.23-21.37a24.54,24.54,0,0,0-19-2.12,26.15,26.15,0,0,0-18.62,31.94A25.74,25.74,0,0,0,1094.75,846a27.18,27.18,0,0,0,14.69-10,30.91,30.91,0,0,0,3.07-6.14c.54-1.5.88-2.59,1.1-3.45Zm-29-7.29c.23-6.13,4.07-11.23,11-13.08s13.57,1.22,15.82,5.95Z"/></g></svg>