<svg id="selected" xmlns="http://www.w3.org/2000/svg" width="24" height="24" viewBox="0 0 24 24">
  <path id="Path_46285" data-name="Path 46285" d="M12,0A12,12,0,1,1,0,12,12,12,0,0,1,12,0Z" fill="#038da0"/>
  <path id="Icon_awesome-check" data-name="Icon awesome-check" d="M3.983,14.909.172,10.316a.813.813,0,0,1,0-1l.829-1a.519.519,0,0,1,.829,0L4.4,11.412,9.9,4.784a.519.519,0,0,1,.829,0l.829,1a.813.813,0,0,1,0,1L4.812,14.909A.519.519,0,0,1,3.983,14.909Z" transform="translate(6.137 2.153)" fill="#fff"/>
</svg>
