<svg xmlns="http://www.w3.org/2000/svg" width="11.249" height="14.251" viewBox="0 0 11.249 14.251">
  <path id="user-Filled_1_" d="M689.375,2703.25a3.75,3.75,0,1,1,3.75,3.75A3.754,3.754,0,0,1,689.375,2703.25Zm6.838,4.553a1.726,1.726,0,0,0-1.253.163,3.784,3.784,0,0,1-3.67,0,1.737,1.737,0,0,0-1.253-.163,3.382,3.382,0,0,0-2.537,3.3v.758a2.652,2.652,0,0,0,.37,1.354,1.122,1.122,0,0,0,.964.538h8.582a1.12,1.12,0,0,0,.964-.539,2.648,2.648,0,0,0,.37-1.354v-.758A3.38,3.38,0,0,0,696.213,2707.8Z" transform="translate(-687.5 -2699.5)" fill="#038da0"/>
</svg>

