<svg id="times-square-Filled" xmlns="http://www.w3.org/2000/svg" xmlns:xlink="http://www.w3.org/1999/xlink" width="24" height="24" viewBox="0 0 24 24">
  <defs>
    <clipPath id="clip-path">
      <rect id="Path" width="24" height="24" fill="rgba(255,255,255,0)" stroke="#707070" stroke-width="1"/>
    </clipPath>
  </defs>
  <g id="Mask_Group_11" data-name="Mask Group 11" clip-path="url(#clip-path)">
    <g id="Group_74724" data-name="Group 74724" transform="translate(-0.253 -0.698)">
      <g id="medicines-hospital-svgrepo-com" transform="translate(4.253 5.698)">
        <g id="Group_74723" data-name="Group 74723" transform="translate(0 0)">
          <g id="Group_74722" data-name="Group 74722">
            <path id="Path_46368" data-name="Path 46368" d="M2.968,6.505H4.182a.2.2,0,0,0,.2-.2V3.211a.2.2,0,0,0-.2-.2H2.968a.2.2,0,0,0-.2.2V6.3A.2.2,0,0,0,2.968,6.505Z" transform="translate(0.365 -0.636)" fill="#603881"/>
            <path id="Path_46369" data-name="Path 46369" d="M.605,6.505H2.324a.2.2,0,0,0,.2-.2V3.211a.2.2,0,0,0-.2-.2H.605A.607.607,0,0,0,0,3.617V5.9A.607.607,0,0,0,.605,6.505Z" transform="translate(0 -0.636)" fill="#603881"/>
            <path id="Path_46370" data-name="Path 46370" d="M14.994.924H8.2A1.537,1.537,0,0,0,6.669,2.464V3.3H5.556a.2.2,0,0,0-.2.2V6.591a.2.2,0,0,0,.2.2H6.669V7.4H.518a.2.2,0,0,0-.187.126l-.217.534A.2.2,0,0,0,.3,8.343H6.669v.609H.2a.2.2,0,0,0-.2.2v5.676a.607.607,0,0,0,.605.609H14.994A1.537,1.537,0,0,0,16.525,13.9V2.464A1.537,1.537,0,0,0,14.994.924ZM4.754,12.256H4.545v.21a.605.605,0,1,1-1.211,0v-.21H3.126a.609.609,0,0,1,0-1.218h.209v-.21a.605.605,0,1,1,1.211,0v.21h.209a.609.609,0,0,1,0,1.218Zm4.682.244a.853.853,0,1,1,.848-.853A.85.85,0,0,1,9.436,12.5Zm0-3.466a.853.853,0,1,1,.848-.853A.851.851,0,0,1,9.436,9.035Zm0-3.511a.853.853,0,1,1,.848-.853A.85.85,0,0,1,9.436,5.524ZM11.9,12.545a.3.3,0,1,1-.605,0V3.818a.3.3,0,1,1,.605,0Zm1.859-.045a.853.853,0,1,1,.848-.853A.85.85,0,0,1,13.758,12.5Zm0-3.466a.853.853,0,1,1,.848-.853A.851.851,0,0,1,13.758,9.035Zm0-3.511a.853.853,0,1,1,.848-.853A.85.85,0,0,1,13.758,5.524Z" transform="translate(0 -0.924)" fill="#603881"/>
          </g>
        </g>
      </g>
    </g>
  </g>
</svg>
