<svg id="trash-Filled" xmlns="http://www.w3.org/2000/svg" width="24" height="24" viewBox="0 0 24 24">
  <rect id="Path" width="24" height="24" fill="rgba(255,255,255,0)"/>
  <path id="trash-Filled_1_" d="M657,2559a1,1,0,0,1-1,1H638a1,1,0,0,1,0-2h3.559a1,1,0,0,0,.949-.684l.316-.948a2,2,0,0,1,1.9-1.368h4.559a2,2,0,0,1,1.9,1.367l.316.95a1,1,0,0,0,.949.683H656A1,1,0,0,1,657,2559Zm-2.7,3.03-.61,9.2a3.522,3.522,0,0,1-3.5,3.27h-6.38a3.521,3.521,0,0,1-3.5-3.26l-.61-9.21a.512.512,0,0,1,.13-.37.523.523,0,0,1,.37-.16h13.6a.524.524,0,0,1,.37.16A.511.511,0,0,1,654.3,2562.03ZM646,2565a1,1,0,0,0-2,0v5a1,1,0,0,0,2,0Zm4,0a1,1,0,0,0-2,0v5a1,1,0,0,0,2,0Z" transform="translate(-635 -2553)" fill="#f01d1d"/>
</svg>
