<svg xmlns="http://www.w3.org/2000/svg" width="100" height="100" viewBox="0 0 100 100">
  <g id="trash" transform="translate(-147.177 -172)">
    <g id="Group_74709" data-name="Group 74709" transform="translate(118.632 143)">
      <circle id="Ellipse_115" data-name="Ellipse 115" cx="50" cy="50" r="50" transform="translate(28.545 29)" fill="#f9fafb"/>
    </g>
    <g id="trash-Filled" transform="translate(172.178 197)">
      <rect id="Path" width="50" height="50" fill="rgba(255,255,255,0)"/>
      <path id="trash-Filled_1_" d="M678.667,2563.333a2.083,2.083,0,0,1-2.083,2.083h-37.5a2.083,2.083,0,1,1,0-4.167H646.5a2.08,2.08,0,0,0,1.977-1.425l.658-1.975a4.164,4.164,0,0,1,3.952-2.85h9.5a4.161,4.161,0,0,1,3.952,2.848l.658,1.979a2.083,2.083,0,0,0,1.977,1.423h7.413A2.083,2.083,0,0,1,678.667,2563.333Zm-5.625,6.313-1.271,19.167a7.339,7.339,0,0,1-7.292,6.813H651.187a7.336,7.336,0,0,1-7.292-6.792l-1.271-19.187a1.066,1.066,0,0,1,.271-.771,1.087,1.087,0,0,1,.771-.333H672a1.09,1.09,0,0,1,.771.333A1.064,1.064,0,0,1,673.042,2569.646Zm-17.292,6.188a2.083,2.083,0,1,0-4.167,0v10.417a2.083,2.083,0,1,0,4.167,0Zm8.333,0a2.083,2.083,0,1,0-4.167,0v10.417a2.083,2.083,0,1,0,4.167,0Z" transform="translate(-632.833 -2550.833)" fill="#f01d1d"/>
    </g>
  </g>
</svg>
