<svg xmlns="http://www.w3.org/2000/svg" width="60.724" height="49.53" viewBox="0 0 60.724 49.53">
  <g id="undraw_completed_re_cisp" transform="translate(0)">
    <path id="Path_395" data-name="Path 395" d="M40.712,49.017a2.778,2.778,0,0,1-1.776-.65l-.032-.026-6.689-5.633a3.5,3.5,0,0,1-.551-4.588,2.8,2.8,0,0,1,4.168-.606l4.333,3.658L50.4,26.468a2.794,2.794,0,0,1,4.166-.606h0l-.064.1.065-.1a3.5,3.5,0,0,1,.55,4.587L43.079,47.737a2.885,2.885,0,0,1-2.364,1.276Z" transform="translate(-13.03 -9.381)" fill="#038da0"/>
    <path id="Path_46417" data-name="Path 46417" d="M79.595,67.212H19.221a.181.181,0,0,1-.175-.186V17.868a.181.181,0,0,1,.175-.186H49.408a.187.187,0,0,1,0,.372H19.4V66.839H79.419V42.447a.176.176,0,1,1,.35,0V67.026A.181.181,0,0,1,79.595,67.212Z" transform="translate(-19.046 -17.682)" fill="#038da0"/>
  </g>
</svg>
