<svg id="User_Image" data-name="User Image" xmlns="http://www.w3.org/2000/svg" width="35" height="35" viewBox="0 0 35 35">
  <circle id="Ellipse_46" data-name="Ellipse 46" cx="17.5" cy="17.5" r="17.5" fill="#038da0"/>
  <path id="Icon_awesome-user-alt" data-name="Icon awesome-user-alt" d="M7.9,9.4a4.578,4.578,0,0,0,4.441-4.7A4.578,4.578,0,0,0,7.9,0,4.578,4.578,0,0,0,3.454,4.7,4.578,4.578,0,0,0,7.9,9.4Zm3.948,1.044h-1.7a5.1,5.1,0,0,1-4.5,0h-1.7A4.068,4.068,0,0,0,0,14.623v.522a1.526,1.526,0,0,0,1.48,1.567H14.311a1.526,1.526,0,0,0,1.48-1.567v-.522A4.068,4.068,0,0,0,11.844,10.445Z" transform="translate(10 9)" fill="#fff"/>
</svg>
