<svg xmlns="http://www.w3.org/2000/svg" width="13.749" height="17.417" viewBox="0 0 13.749 17.417">
  <path id="user-Filled_1_" d="M689.792,2704.083a4.583,4.583,0,1,1,4.583,4.583A4.588,4.588,0,0,1,689.792,2704.083Zm8.357,5.565a2.107,2.107,0,0,0-1.531.2,4.627,4.627,0,0,1-4.486,0,2.122,2.122,0,0,0-1.531-.2,4.133,4.133,0,0,0-3.1,4.03v.927a3.241,3.241,0,0,0,.452,1.656,1.372,1.372,0,0,0,1.178.657h10.489a1.368,1.368,0,0,0,1.178-.658,3.235,3.235,0,0,0,.452-1.655v-.927A4.131,4.131,0,0,0,698.149,2709.648Z" transform="translate(-687.5 -2699.5)" fill="#038da0"/>
</svg>

