<svg xmlns="http://www.w3.org/2000/svg" width="15" height="13.5" viewBox="0 0 15 13.5">
  <path id="users-three-Filled_1_" d="M794.762,2702.782a2.77,2.77,0,0,1-1.957,2.647,4.431,4.431,0,0,0,.2-1.3,4.492,4.492,0,0,0-2.2-3.862,2.826,2.826,0,0,1,1.185-.263A2.78,2.78,0,0,1,794.762,2702.782Zm-.562,3.443a1.234,1.234,0,0,0-.937.112,2.5,2.5,0,0,1-1.042.308,3.835,3.835,0,0,1-.525.637,4.069,4.069,0,0,1,2.745,3.218h.518a.921.921,0,0,0,.818-.472,1.914,1.914,0,0,0,.225-.907v-.532A2.43,2.43,0,0,0,794.2,2706.225Zm-8-5.962a2.826,2.826,0,0,0-1.185-.263,2.777,2.777,0,0,0-.818,5.43,4.433,4.433,0,0,1-.2-1.3A4.492,4.492,0,0,1,786.2,2700.263Zm-.893,7.02a3.835,3.835,0,0,1-.525-.637,2.5,2.5,0,0,1-1.042-.308,1.234,1.234,0,0,0-.937-.112,2.431,2.431,0,0,0-1.8,2.362v.532a1.913,1.913,0,0,0,.225.907.918.918,0,0,0,.81.472h.525A4.069,4.069,0,0,1,785.3,2707.282Zm5.88,1.02a1.748,1.748,0,0,0-.4-.052,1.526,1.526,0,0,0-.742.2,3.2,3.2,0,0,1-3.09,0,1.526,1.526,0,0,0-.742-.2,1.748,1.748,0,0,0-.4.052,2.966,2.966,0,0,0-2.19,2.873v.653a2.3,2.3,0,0,0,.277,1.095,1.091,1.091,0,0,0,.983.578h7.23a1.091,1.091,0,0,0,.983-.578,2.3,2.3,0,0,0,.277-1.095v-.653A2.966,2.966,0,0,0,791.185,2708.3Zm.69-4.177a3.375,3.375,0,1,0-3.375,3.375A3.375,3.375,0,0,0,791.875,2704.125Z" transform="translate(-781 -2700)" fill="#603881"/>
</svg>
