<svg xmlns="http://www.w3.org/2000/svg" width="19.5" height="14" viewBox="0 0 19.5 14">
  <path id="video-Filled_1_" d="M555.25,2851.346v4.308a4.688,4.688,0,0,1-4.5,4.846h-5a4.688,4.688,0,0,1-4.5-4.846v-4.308a4.688,4.688,0,0,1,4.5-4.846h5A4.688,4.688,0,0,1,555.25,2851.346Zm4.6-2.435a1.585,1.585,0,0,0-1.736.091l-1.14.819a.552.552,0,0,0-.223.448v6.461a.549.549,0,0,0,.223.448l1.139.818a1.586,1.586,0,0,0,1.737.093,1.851,1.851,0,0,0,.9-1.616v-5.945A1.851,1.851,0,0,0,559.849,2848.912Z" transform="translate(-541.25 -2846.5)" fill="#038da0"/>
</svg>
