<svg xmlns="http://www.w3.org/2000/svg" width="16.25" height="10.833" viewBox="0 0 16.25 10.833">
  <path id="video-Filled_1_" d="M552.917,2850.25v3.333a3.754,3.754,0,0,1-3.75,3.75H545a3.754,3.754,0,0,1-3.75-3.75v-3.333a3.755,3.755,0,0,1,3.75-3.75h4.167A3.755,3.755,0,0,1,552.917,2850.25Zm3.833-1.884a1.405,1.405,0,0,0-1.447.071l-.95.633a.417.417,0,0,0-.186.347v5a.416.416,0,0,0,.186.347l.949.633a1.415,1.415,0,0,0,2.2-1.179v-4.6A1.414,1.414,0,0,0,556.749,2848.366Z" transform="translate(-541.25 -2846.5)" fill="#603881"/>
</svg>

