<svg id="visa-light-large" xmlns="http://www.w3.org/2000/svg" width="47.195" height="23.298" viewBox="0 0 47.195 23.298">
  <path id="visa-logo" d="M27.082,23.3a7.979,7.979,0,0,1-4.145-1.2l.685-4.894a5.93,5.93,0,0,0,3.783,1.47h.1a2.171,2.171,0,0,0,2.276-2.227c.015-.958-.52-1.721-1.974-2.815a7.4,7.4,0,0,1-3.326-6.143C24.482,3.079,27.1,0,30.848,0a7.149,7.149,0,0,1,3.566,1L33.746,5.9A5.2,5.2,0,0,0,30.69,4.841a4.68,4.68,0,0,0-.7.053A1.91,1.91,0,0,0,28.4,6.779c0,.948.789,1.583,1.787,2.387,1.584,1.275,3.556,2.863,3.545,6.595l.08-.2c-.016,4.7-2.622,7.733-6.637,7.733ZM37.63,23.1h0l-4.01,0L39.333,2.13c.263-1,.888-1.654,1.592-1.665h3.183L47.195,23.1l-3.532,0L43.2,19.725H38.409L37.63,23.1Zm3.788-16.52-2.006,8.491H42.58Zm-21.2,16.446H16.395L19.579.392H23.4L20.216,23.027Zm-8.356-.075H7.7L4.665,4.87a2.669,2.669,0,0,0-.908-1.982A12.441,12.441,0,0,0,0,.978L.1.317H6.574c.883,0,1.626.968,1.766,2.3L9.932,15.71,13.9.317h4.139L11.859,22.953Z" fill="#2a2a6c"/>
</svg>
