<svg xmlns="http://www.w3.org/2000/svg" xmlns:xlink="http://www.w3.org/1999/xlink" width="266" height="275" viewBox="0 0 266 275">
  <defs>
    <clipPath id="clip-path">
      <rect id="Rectangle_6253" data-name="Rectangle 6253" width="266" height="275" transform="translate(58 185.64)" fill="#fff" stroke="#707070" stroke-width="1"/>
    </clipPath>
  </defs>
  <g id="Welcome_screen_image" data-name="Welcome screen image" transform="translate(-58 -185.64)" clip-path="url(#clip-path)">
    <g id="undraw_edit_photo_re_ton4" transform="translate(58 216.502)">
      <path id="Path_46372" data-name="Path 46372" d="M74.3,161.119V54A1.732,1.732,0,0,1,76,52.239H224.593a1.732,1.732,0,0,1,1.7,1.758V161.119a1.732,1.732,0,0,1-1.7,1.758H76A1.732,1.732,0,0,1,74.3,161.119Z" transform="translate(-74.298 -52.239)" fill="#fff"/>
      <path id="Path_46373" data-name="Path 46373" d="M74.3,161.119V54A1.732,1.732,0,0,1,76,52.239H224.593a1.732,1.732,0,0,1,1.7,1.758V161.119a1.732,1.732,0,0,1-1.7,1.758H76A1.732,1.732,0,0,1,74.3,161.119ZM76,52.942A1.039,1.039,0,0,0,74.978,54V161.119A1.039,1.039,0,0,0,76,162.174H224.593a1.039,1.039,0,0,0,1.02-1.055V54a1.039,1.039,0,0,0-1.02-1.055Z" transform="translate(-74.298 -52.239)" fill="#e6e6e6"/>
      <path id="feda1070-6288-4949-b833-330f4749d65f" d="M135.729,62.16a1.395,1.395,0,0,1,0,2.788h-33.8a1.395,1.395,0,0,1-.044-2.788h33.84Z" transform="translate(-72.659 -51.261)" fill="#e4e4e4"/>
      <path id="Path_46374" data-name="Path 46374" d="M94.759,61.814a.281.281,0,0,1,0,.388h0L93.62,63.379h2.808a.274.274,0,0,1,0,.549H93.62l1.139,1.177a.281.281,0,0,1,0,.388.259.259,0,0,1-.375,0h0l-1.591-1.646a.281.281,0,0,1,0-.388l1.591-1.646a.259.259,0,0,1,.375,0Z" transform="translate(-73.149 -51.303)" fill="#e6e6e6"/>
      <path id="Path_46375" data-name="Path 46375" d="M141,61.814a.281.281,0,0,0,0,.388h0l1.139,1.177h-2.808a.274.274,0,0,0,0,.549h2.809L141,65.105a.281.281,0,0,0,0,.388.259.259,0,0,0,.375,0h0l1.591-1.646a.281.281,0,0,0,0-.388l-1.591-1.646a.259.259,0,0,0-.375,0Z" transform="translate(-70.257 -51.303)" fill="#e6e6e6"/>
      <path id="feda1070-6288-4949-b833-330f4749d65f-2" data-name="feda1070-6288-4949-b833-330f4749d65f" d="M135.729,136.792a1.395,1.395,0,0,1,0,2.788h-33.8a1.395,1.395,0,0,1-.044-2.788h33.84Z" transform="translate(-72.659 -43.905)" fill="#e4e4e4"/>
      <path id="feda1070-6288-4949-b833-330f4749d65f-3" data-name="feda1070-6288-4949-b833-330f4749d65f" d="M204.819,88.624a1.395,1.395,0,0,1,0,2.788h-33.8a1.395,1.395,0,0,1-.044-2.788h33.84Z" transform="translate(-68.349 -48.653)" fill="#e4e4e4"/>
      <path id="feda1070-6288-4949-b833-330f4749d65f-4" data-name="feda1070-6288-4949-b833-330f4749d65f" d="M204.819,97.592a1.395,1.395,0,0,1,0,2.788h-33.8a1.395,1.395,0,0,1-.044-2.788h33.84Z" transform="translate(-68.349 -47.769)" fill="#e4e4e4"/>
      <path id="feda1070-6288-4949-b833-330f4749d65f-5" data-name="feda1070-6288-4949-b833-330f4749d65f" d="M204.819,106.56a1.395,1.395,0,0,1,0,2.788h-33.8a1.395,1.395,0,0,1-.044-2.788h33.84Z" transform="translate(-68.349 -46.885)" fill="#e4e4e4"/>
      <path id="Path_46376" data-name="Path 46376" d="M181.793,120.853a4.618,4.618,0,1,1,4.615,4.772A4.7,4.7,0,0,1,181.793,120.853Z" transform="translate(-67.591 -45.947)" fill="#038da0"/>
      <path id="Path_46377" data-name="Path 46377" d="M184.45,120.165h1.366v-1.412a.456.456,0,1,1,.911,0v1.414h1.366a.471.471,0,0,1,0,.941h-1.366v1.412a.456.456,0,1,1-.911,0v-1.412H184.45a.471.471,0,0,1,0-.941Z" transform="translate(-67.454 -45.73)" fill="#fff"/>
      <path id="Path_46394" data-name="Path 46394" d="M0,1.659,72.668.463,72.66.925-.008,2.122Z" transform="translate(20.2 73.309) rotate(-39.333)" fill="#e6e6e6"/>
      <path id="Path_46395" data-name="Path 46395" d="M1.663,0l.462-.008-1.2,72.82-.462.008Z" transform="translate(20.201 29.247) rotate(-50.51)" fill="#e6e6e6"/>
      <path id="Path_46378" data-name="Path 46378" d="M93.58,123.657V78.417a1.616,1.616,0,0,1,1.587-1.641h53.951a1.616,1.616,0,0,1,1.587,1.641v45.24a1.616,1.616,0,0,1-1.587,1.641H95.167A1.616,1.616,0,0,1,93.58,123.657Zm1.587-46.412a1.155,1.155,0,0,0-1.133,1.172v45.24a1.155,1.155,0,0,0,1.133,1.172h53.951a1.155,1.155,0,0,0,1.133-1.172V78.417a1.155,1.155,0,0,0-1.133-1.172Z" transform="translate(-73.095 -49.82)" fill="#3f3d56"/>
      <path id="Path_46379" data-name="Path 46379" d="M88.179,131.125V85.886a1.616,1.616,0,0,1,1.587-1.641h53.951a1.616,1.616,0,0,1,1.587,1.641v45.24a1.616,1.616,0,0,1-1.587,1.641H89.766a1.616,1.616,0,0,1-1.587-1.641Z" transform="translate(-73.432 -49.084)" fill="#038da0"/>
      <path id="Path_46380" data-name="Path 46380" d="M109.27,120.415h27.544a.543.543,0,0,0,.1-.008L123.89,97.074a.9.9,0,0,0-1.588,0l-8.743,15.658-.419.749Z" transform="translate(-72.116 -47.867)" fill="#fff"/>
      <path id="Path_46381" data-name="Path 46381" d="M34.972,66.728h9.4l-4.616-6.933-.332-.5-.166-.25-.419.749Z" transform="translate(2.182 5.819)" opacity="0.2"/>
      <path id="Path_46382" data-name="Path 46382" d="M94.835,119.8h23.823l-4.616-6.934-.332-.5-6.016-9.036a1.191,1.191,0,0,0-1.807-.112,1.12,1.12,0,0,0-.087.112Z" transform="translate(-73.017 -47.25)" fill="#fff"/>
      <ellipse id="Ellipse_120" data-name="Ellipse 120" cx="4.08" cy="4.219" rx="4.08" ry="4.219" transform="translate(35.693 46.295)" fill="#fff"/>
      <rect id="Rectangle_6256" data-name="Rectangle 6256" width="4.987" height="5.157" transform="translate(63.938 38.442)" fill="#eeedf8"/>
      <path id="Path_46383" data-name="Path 46383" d="M196.879,191.685h-3.957L191.039,175.9h5.841Z" transform="translate(11.919 17.337)" fill="#fad994"/>
      <path id="Path_46384" data-name="Path 46384" d="M272.533,246.594h-12.76v-.167a5.053,5.053,0,0,1,4.966-5.136h7.794Z" transform="translate(-62.726 -33.606)" fill="#2f2e41"/>
      <path id="Path_46385" data-name="Path 46385" d="M226.726,188.565l-3.786,1.189L216.7,175.218l5.589-1.755Z" transform="translate(13.52 17.096)" fill="#fad994"/>
      <path id="Path_46386" data-name="Path 46386" d="M303.126,243.083l-12.209,3.834-.047-.16a5.168,5.168,0,0,1,3.309-6.407h0l7.457-2.342Z" transform="translate(-60.8 -33.929)" fill="#2f2e41"/>
      <rect id="Rectangle_6257" data-name="Rectangle 6257" width="104.593" height="0.748" transform="translate(161.005 212.889)" fill="#cacaca"/>
      <ellipse id="Ellipse_121" data-name="Ellipse 121" cx="8.232" cy="8.512" rx="8.232" ry="8.512" transform="translate(192.652 43.301)" fill="#fad994"/>
      <path id="Path_46387" data-name="Path 46387" d="M227.217,182.5l-8.123,3.6-18.8-45.839-1.509,51-8.123-.48-9.052-79.918.7-4.56,30.752,7.079.464,25.679Z" transform="translate(11.331 10.477)" fill="#2f2e41"/>
      <path id="Path_46388" data-name="Path 46388" d="M254.622,97.9s5.338-5.04,6.963-2.88,2.089,2.64,3.017,2.64,3.249,2.64,3.249,2.64,1.16-2.4,2.553-.48a10.964,10.964,0,0,1,1.625,4.8s5.106-12.24-3.946-14.639S252.533,95.022,254.622,97.9Z" transform="translate(-63.072 -48.565)" fill="#2f2e41"/>
      <path id="Path_46389" data-name="Path 46389" d="M289.214,174.613c-4.41-2-4.54-.43-10.908,2.16-8.021,1.03-13.12,1.162-15.666-2.28-1.042-6.833-1.9-13.384-2.423-19.615q-.164-1.926-.283-3.813c-.928-14.656.209-27.4,5.375-37.65l9.284-7.2,3.029,2.273c7.234,5.429,6.109,13.768,7.069,22.958Z" transform="translate(-62.735 -46.919)" fill="#e6e6e6"/>
      <path id="Path_46390" data-name="Path 46390" d="M273.818,127.078s13.712,18.479,3.918,26.879-15.272,13.68-15.272,13.68S263.045,131.4,273.818,127.078Z" transform="translate(-62.559 -44.863)" opacity="0.2"/>
      <path id="Path_46391" data-name="Path 46391" d="M268.657,145.967l-8.457,7.265q-.164-1.926-.283-3.813l5.723-26.49Z" transform="translate(-62.717 -45.272)" opacity="0.2"/>
      <path id="Path_46392" data-name="Path 46392" d="M259.149,170.372a3.835,3.835,0,0,0,1.94-2.57,3.956,3.956,0,0,0-.66-3.188l4.3-7.6-3.827-3.83L254.975,164a3.967,3.967,0,0,0-.648,5.1,3.673,3.673,0,0,0,4.823,1.267Z" transform="translate(-63.106 -42.289)" fill="#fad994"/>
      <path id="Path_46393" data-name="Path 46393" d="M262.749,169.092l-6.731-5.52,8.819-23.039.2-24.015a5.459,5.459,0,0,1,3.516-5.105h0a5.142,5.142,0,0,1,4.792.663,5.522,5.522,0,0,1,2.268,4.415l.364,27.882Z" transform="translate(-62.961 -46.438)" fill="#e6e6e6"/>
    </g>
  </g>
</svg>
